<?xml version="1.0" encoding="UTF-8"?>
<svg xmlns="http://www.w3.org/2000/svg" xmlns:xlink="http://www.w3.org/1999/xlink" width="512pt" height="512pt" viewBox="0 0 512 512" version="1.1">
<g id="surface1">
<path style=" stroke:none;fill-rule:nonzero;fill:#5B5B5B;fill-opacity:1;" d="M 256.03125 24 C 128.125 24 24.0625 128.09375 24.0625 256 C 24.0625 383.90625 128.125 488 256.03125 488 C 383.96875 488 488.03125 383.90625 488.03125 256 C 488.03125 128.09375 383.96875 24 256.03125 24 Z M 256.03125 40 C 375.15625 40 472.03125 136.90625 472.03125 256 C 472.03125 375.09375 375.15625 472 256.03125 472 C 136.9375 472 40.0625 375.09375 40.0625 256 C 40.0625 136.90625 136.9375 40 256.03125 40 Z M 262.25 65.15625 C 257.96875 65.15625 254.40625 68.5625 254.25 72.875 C 254.09375 77.3125 257.5625 81 261.96875 81.15625 C 327.125 83.40625 385.4375 121.28125 414.15625 180.03125 C 415.5625 182.875 418.40625 184.5 421.375 184.5 C 422.53125 184.5 423.71875 184.28125 424.875 183.71875 C 428.84375 181.78125 430.5 176.96875 428.53125 173 C 397.21875 108.9375 333.59375 67.625 262.53125 65.1875 C 262.4375 65.15625 262.34375 65.15625 262.25 65.15625 Z M 256.03125 112 C 176.65625 112 112.03125 176.59375 112.03125 256 C 112.03125 335.40625 176.65625 400 256.03125 400 C 335.46875 400 400.03125 335.40625 400.03125 256 C 400.03125 176.59375 335.4375 112 256.03125 112 Z M 256.03125 128 C 326.625 128 384.03125 185.4375 384.03125 256 C 384.03125 326.5625 326.625 384 256.03125 384 C 185.46875 384 128.03125 326.5625 128.03125 256 C 128.03125 185.4375 185.46875 128 256.03125 128 Z M 435.625 216.625 C 431.28125 217.4375 428.40625 221.59375 429.1875 225.9375 C 431.375 238.125 432.25 250.625 431.84375 263.09375 C 431.6875 267.5 435.125 271.21875 439.53125 271.375 C 439.65625 271.375 439.75 271.375 439.84375 271.375 C 444.125 271.375 447.6875 267.9375 447.84375 263.625 C 448.28125 250.03125 447.3125 236.40625 444.9375 223.125 C 444.15625 218.75 439.96875 215.8125 435.625 216.625 Z M 81.34375 277.03125 L 65.5625 279.65625 C 61.1875 280.40625 58.25 284.5 58.96875 288.875 C 59.625 292.78125 63.03125 295.5625 66.875 295.5625 C 67.28125 295.5625 67.71875 295.53125 68.1875 295.46875 L 83.96875 292.84375 C 88.3125 292.09375 91.25 288 90.53125 283.625 C 89.8125 279.25 85.75 276.25 81.34375 277.03125 Z M 92.4375 311.875 C 91.40625 311.875 90.34375 312.03125 89.3125 312.46875 L 74.4375 318.28125 C 70.3125 319.875 68.28125 324.53125 69.875 328.625 C 71.125 331.8125 74.15625 333.75 77.34375 333.75 C 78.3125 333.75 79.3125 333.5625 80.25 333.15625 L 95.15625 327.34375 C 99.28125 325.75 101.28125 321.09375 99.6875 317 C 98.46875 313.90625 95.5625 311.96875 92.4375 311.875 Z M 107.375 344.28125 C 106.375 344.46875 105.375 344.84375 104.46875 345.46875 L 91.0625 354.25 C 87.375 356.65625 86.34375 361.625 88.75 365.3125 C 90.28125 367.65625 92.84375 368.90625 95.46875 368.90625 C 96.96875 368.90625 98.46875 368.5 99.84375 367.625 L 113.21875 358.84375 C 116.90625 356.40625 117.96875 351.46875 115.53125 347.75 C 113.71875 345 110.46875 343.71875 107.375 344.28125 Z M 131.65625 372.375 C 129.625 372.375 127.5625 373.15625 126 374.75 L 114.6875 386.03125 C 111.5625 389.1875 111.5625 394.21875 114.6875 397.375 C 116.25 398.90625 118.28125 399.71875 120.34375 399.71875 C 122.40625 399.71875 124.4375 398.90625 126 397.375 L 137.3125 386.03125 C 140.4375 382.90625 140.4375 377.875 137.3125 374.75 C 135.75 373.15625 133.6875 372.375 131.65625 372.375 Z M 161.3125 395.34375 C 158.25 394.78125 155 396.0625 153.1875 398.84375 L 144.40625 412.21875 C 142 415.90625 143.03125 420.875 146.75 423.28125 C 148.09375 424.15625 149.59375 424.59375 151.125 424.59375 C 153.71875 424.59375 156.28125 423.34375 157.8125 421 L 166.59375 407.59375 C 169 403.90625 167.96875 398.9375 164.25 396.53125 C 163.34375 395.9375 162.34375 395.53125 161.3125 395.34375 Z M 191.9375 411.8125 C 188.8125 411.90625 185.90625 413.8125 184.71875 416.875 L 178.875 431.78125 C 177.25 435.90625 179.28125 440.53125 183.40625 442.15625 C 184.375 442.53125 185.34375 442.71875 186.3125 442.71875 C 189.5 442.71875 192.53125 440.78125 193.75 437.625 L 199.59375 422.75 C 201.21875 418.625 199.1875 413.96875 195.09375 412.375 C 194.03125 411.96875 192.96875 411.78125 191.9375 411.8125 Z M 228.40625 421.5 C 224.03125 420.71875 219.9375 423.71875 219.21875 428.09375 L 216.59375 443.875 C 215.875 448.25 218.8125 452.34375 223.15625 453.09375 C 223.625 453.15625 224.0625 453.1875 224.5 453.1875 C 228.34375 453.1875 231.71875 450.40625 232.375 446.5 L 235 430.71875 C 235.71875 426.34375 232.78125 422.25 228.40625 421.5 Z "/>
</g>
</svg>
